<svg version="1.1" id="Layer_1" xmlns="http://www.w3.org/2000/svg" xmlns:xlink="http://www.w3.org/1999/xlink" x="0px" y="0px"
	 width="100%" viewBox="0 0 1024 576" enable-background="new 0 0 1024 576" xml:space="preserve">
<path fill="#000000" opacity="1.000000" stroke="none" 
	d="
M500.967163,216.026108 
	C505.983093,210.468079 510.801636,204.789871 513.419189,197.596573 
	C515.981873,190.553848 515.377869,189.281281 508.368713,186.512680 
	C502.692596,184.270615 498.853516,180.237350 496.747131,174.421066 
	C497.501892,174.127701 497.909637,173.827682 498.070190,173.927048 
	C507.818115,179.959381 516.516541,176.986877 524.849670,170.843994 
	C529.953003,167.081970 535.094788,163.364304 541.148499,161.244095 
	C555.608276,156.179749 568.719482,159.960220 579.355530,172.814331 
	C566.617004,175.721481 558.948242,184.008041 555.711914,195.878891 
	C553.605408,203.605286 552.377930,211.735245 555.235352,219.806702 
	C557.338562,219.394653 557.528076,217.683289 558.084656,216.414795 
	C563.113098,204.954208 571.203369,196.086624 581.119507,188.670380 
	C591.257263,181.088394 601.820129,174.084290 611.588440,165.998291 
	C636.039490,145.758240 647.554810,119.599998 647.463928,88.080025 
	C647.461121,87.109894 647.143005,86.061348 649.147583,84.762672 
	C659.455017,103.997688 662.666199,124.381447 661.158386,145.679062 
	C659.641418,167.104568 650.941589,185.974243 639.364685,203.923035 
	C646.698975,201.324661 650.620667,195.379044 654.528870,189.669174 
	C658.525574,183.830154 661.871216,177.545486 665.823730,170.916000 
	C667.482056,174.184036 666.521729,177.016525 666.127441,179.548096 
	C662.926025,200.104355 657.081543,219.784012 646.117676,237.695816 
	C635.381531,255.235336 620.170166,267.422150 601.316467,275.228882 
	C594.548584,278.031250 587.685791,280.606628 580.845642,283.231812 
	C571.740967,286.726135 563.295288,291.277679 556.201965,298.112488 
	C554.924316,299.343567 553.385986,300.304016 551.933228,301.416046 
	C550.378235,299.397797 551.739807,298.178772 552.335266,296.986725 
	C558.671753,284.300751 568.359741,275.074005 581.146545,268.958435 
	C590.606140,264.434143 600.307617,260.392303 609.265625,254.847076 
	C619.054504,248.787460 627.048706,240.881027 633.728149,231.578522 
	C634.401611,230.640594 634.966431,229.609970 635.459656,228.564819 
	C635.647034,228.167862 635.490173,227.608444 635.490173,227.216721 
	C634.408264,225.919174 633.315247,226.476700 632.264709,226.984222 
	C621.752197,232.063248 610.853394,236.138062 599.822876,239.950821 
	C590.130432,243.301056 581.072327,247.868393 574.907715,256.636292 
	C574.359314,257.416229 573.679077,258.240601 572.404480,258.212463 
	C570.892212,256.989990 571.889282,255.548615 572.218689,254.199356 
	C574.994812,242.829285 582.365540,234.948318 591.725525,228.587524 
	C606.730225,218.390625 620.170593,206.575165 630.307556,191.335236 
	C635.593811,183.387924 640.021790,175.017761 642.607483,165.786270 
	C643.128967,163.924789 643.673035,161.660446 641.454285,160.383530 
	C639.137939,159.050476 637.363586,160.216049 635.836426,162.058624 
	C623.232849,177.265060 606.704956,187.842987 591.120117,199.451782 
	C574.750183,211.645370 565.273804,227.602951 561.352966,247.436630 
	C558.527283,261.730408 557.746399,276.510406 550.760620,289.870453 
	C544.287964,302.249084 534.423950,311.173279 523.231934,318.896759 
	C509.290771,328.517365 496.364899,339.167694 486.862610,353.431030 
	C475.082397,371.113678 476.515717,389.291901 490.859955,404.992401 
	C491.605804,405.808777 492.246460,406.721283 493.048584,407.730560 
	C486.599304,408.635437 475.665619,401.433655 470.504822,393.330475 
	C465.095245,384.836639 463.940430,375.842102 466.293182,366.065613 
	C468.513336,356.839874 474.154663,349.411163 478.363770,340.987793 
	C464.335022,346.350159 454.068542,355.660065 447.639832,369.110199 
	C441.068085,382.859741 442.079193,397.049286 445.795197,411.469238 
	C440.378510,408.148071 438.439178,402.789825 436.656555,397.552795 
	C429.528687,376.612701 436.111847,355.434937 454.524109,339.842163 
	C459.732178,335.431610 465.365265,331.523956 470.591003,327.132904 
	C476.198120,322.421387 480.304749,316.635437 481.736603,309.254700 
	C483.251892,301.444153 480.208313,294.278076 473.591461,289.830536 
	C467.364624,285.645172 460.241180,283.963745 453.103546,282.247894 
	C441.771332,279.523651 430.484650,276.674133 419.822144,271.769257 
	C397.073761,261.304810 382.656708,243.144867 372.688019,220.895859 
	C366.582886,207.269958 363.277954,192.835251 360.919373,178.165054 
	C360.608795,176.233185 360.336243,174.207657 361.604156,170.952209 
	C369.019043,185.991425 376.747681,199.824127 391.459534,208.166290 
	C362.835632,169.605362 357.750549,128.873657 377.558807,85.104843 
	C380.344025,85.957382 380.064056,87.251831 380.029144,88.368126 
	C379.034668,120.175491 391.413055,145.922287 415.596191,166.155670 
	C426.652954,175.406601 439.297302,182.218948 452.206635,188.489441 
	C468.837006,196.567383 485.588837,204.408859 500.858490,216.154480 
	C504.205750,219.807251 507.184143,222.964066 509.877991,226.347443 
	C524.556763,244.783127 526.388123,269.054169 514.645386,288.964935 
	C513.277466,291.284424 512.004395,293.809692 509.119629,294.748444 
	C508.254059,293.220581 508.895660,292.146088 509.275879,291.077911 
	C516.269958,271.428925 511.385498,253.813416 499.846527,237.487503 
	C492.238373,226.723083 481.343872,219.815842 469.984955,213.768265 
	C457.199493,206.961182 443.994354,200.940781 431.226593,194.102356 
	C412.786163,184.225677 396.608124,171.638855 385.391937,153.513580 
	C384.566376,152.179520 383.863281,150.503357 381.925964,150.370773 
	C381.034546,151.004578 381.204773,151.882828 381.244476,152.675293 
	C381.310913,154.002609 381.298645,155.368973 381.619873,156.643173 
	C386.101501,174.417770 394.165894,190.235825 406.965881,203.556274 
	C418.726440,215.795059 432.752960,224.433945 448.384918,230.789062 
	C464.318695,237.266876 477.450256,247.000137 484.395325,263.452423 
	C484.855774,264.543304 486.130920,265.586487 484.853088,267.195465 
	C484.286072,266.845947 483.629700,266.621002 483.230377,266.168976 
	C472.070953,253.536163 457.498627,247.141556 441.598175,242.893936 
	C425.703979,238.647995 409.582947,234.960770 395.048004,226.732300 
	C393.761597,226.004074 392.183411,225.658661 390.803314,227.779602 
	C395.748627,237.017792 403.045532,244.364685 411.445312,250.714203 
	C423.690186,259.970276 437.998932,264.296783 452.633759,267.884827 
	C462.981293,270.421722 473.395416,272.875122 482.390228,279.046021 
	C493.800293,286.873962 498.028290,299.971130 493.361298,312.848419 
	C492.888794,314.152222 491.639984,315.500793 493.601013,317.257599 
	C501.757172,314.384338 509.186279,309.763306 516.506226,304.896179 
	C538.076477,290.553711 545.795654,270.018799 543.210449,244.975189 
	C542.391174,237.038864 540.539124,229.186066 540.072144,221.241394 
	C539.175964,205.994827 541.343201,191.312805 550.551392,178.440109 
	C551.412720,177.236008 552.328064,175.823425 551.363342,174.295715 
	C550.276428,172.574600 548.412659,172.782822 546.840210,173.188660 
	C542.761108,174.241425 539.345642,176.288452 536.255798,179.361969 
	C530.085022,185.500198 526.802795,193.309189 522.627686,200.657532 
	C517.871155,209.029251 511.626801,215.759537 500.967163,216.026108 
M473.026398,206.402771 
	C481.173065,210.132584 488.294464,215.683655 496.858887,220.899261 
	C493.644592,212.014420 466.386810,196.616577 460.623199,200.176392 
	C464.782104,202.257492 468.576324,204.156097 473.026398,206.402771 
z"/>
</svg>